<?xml version="1.0" encoding="UTF-8"?>
<!DOCTYPE svg PUBLIC "-//W3C//DTD SVG 1.1//EN" "http://www.w3.org/Graphics/SVG/1.1/DTD/svg11.dtd">
<!-- Creator: CorelDRAW 2017 -->
<svg xmlns="http://www.w3.org/2000/svg" xml:space="preserve" width="91.4398mm" height="91.4398mm" version="1.1" style="shape-rendering:geometricPrecision; text-rendering:geometricPrecision; image-rendering:optimizeQuality; fill-rule:evenodd; clip-rule:evenodd"
viewBox="0 0 9144 9144"
 xmlns:xlink="http://www.w3.org/1999/xlink">
 <defs>
  <style type="text/css">
   <![CDATA[
    .str2 {stroke:#2C3D5B;stroke-width:20}
    .str0 {stroke:#2C3D5B;stroke-width:7.62}
    .str1 {stroke:#2C3D5B;stroke-width:31.88;stroke-dasharray:31.880000 31.880000}
    .fil1 {fill:none;fill-rule:nonzero}
    .fil2 {fill:#2C3D5B}
    .fil0 {fill:#2C3D5B;fill-rule:nonzero}
   ]]>
  </style>
 </defs>
 <g id="Capa_x0020_1">
  <metadata id="CorelCorpID_0Corel-Layer"/>
  <g id="_2682642496624">
   <path class="fil0 str0" d="M2869 5786c0,-42 -13,-76 -38,-102 -25,-26 -59,-39 -100,-39 -41,0 -74,12 -97,35 -23,23 -35,56 -35,97 0,46 12,83 35,109 24,26 56,39 98,39 43,0 77,-12 101,-37 24,-25 37,-59 37,-103zm68 -452l0 639 -68 0 0 -68c-16,27 -37,48 -63,62 -26,14 -54,22 -86,22 -59,0 -106,-19 -142,-56 -36,-37 -54,-86 -54,-148 0,-62 18,-111 53,-148 35,-37 82,-55 141,-55 34,0 64,7 89,21 25,14 45,35 61,63l0 -333 70 0zm184 451c0,40 15,74 43,101 29,28 64,41 105,41 41,0 76,-14 105,-41 29,-28 43,-61 43,-101 0,-40 -14,-74 -43,-101 -29,-28 -64,-41 -105,-41 -41,0 -77,14 -105,41 -29,28 -43,61 -43,101zm-74 0c0,-28 6,-54 17,-78 11,-24 27,-46 48,-66 21,-19 45,-34 72,-44 27,-10 55,-15 86,-15 30,0 58,5 85,15 27,10 51,25 73,45 21,19 37,41 48,65 11,25 17,51 17,78 0,28 -6,53 -17,78 -11,24 -27,46 -48,65 -22,20 -46,35 -73,45 -27,10 -55,16 -84,16 -30,0 -59,-5 -86,-15 -27,-10 -51,-25 -72,-44 -21,-20 -37,-42 -48,-66 -11,-24 -17,-50 -17,-78zm622 1c0,44 12,78 37,103 24,25 58,37 101,37 42,0 75,-13 98,-39 24,-26 36,-63 36,-109 0,-41 -12,-73 -35,-97 -23,-23 -55,-35 -97,-35 -42,0 -76,13 -101,39 -26,26 -39,59 -39,102zm-67 -452l70 0 0 333c16,-28 36,-49 61,-63 25,-14 55,-21 88,-21 59,0 106,18 141,55 35,37 53,86 53,148 0,61 -18,111 -54,148 -36,37 -83,56 -142,56 -32,0 -61,-7 -87,-22 -26,-15 -47,-35 -63,-62l0 68 -67 0 0 -639zm528 639l0 -639 72 0 0 639 -72 0zm509 -231c-2,-33 -14,-59 -36,-77 -22,-18 -51,-27 -89,-27 -34,0 -63,9 -85,28 -23,19 -36,44 -39,76l249 0zm75 52l-325 0 0 6c0,40 13,73 38,98 25,25 58,37 98,37 27,0 52,-7 74,-20 22,-14 42,-34 59,-61l53 33c-20,34 -47,60 -79,77 -32,17 -69,26 -111,26 -62,0 -113,-19 -151,-57 -39,-38 -58,-88 -58,-149 0,-59 19,-107 57,-145 38,-38 87,-56 147,-56 61,0 109,18 144,54 35,36 53,85 53,146l0 13zm113 179l0 -603 78 0 0 535 248 0 0 68 -326 0zm438 -40c0,-14 5,-25 16,-35 11,-10 23,-14 38,-14 15,0 28,5 38,14 11,10 16,21 16,35 0,14 -5,25 -16,34 -11,9 -23,14 -39,14 -15,0 -28,-5 -38,-14 -10,-9 -15,-21 -15,-34zm574 -144c0,-43 -13,-77 -38,-103 -25,-26 -58,-39 -99,-39 -42,0 -75,12 -98,36 -24,24 -35,57 -35,100 0,46 12,81 36,105 24,25 57,37 101,37 42,0 75,-12 98,-36 24,-24 36,-58 36,-101zm68 -192l0 377 -68 0 0 -68c-16,27 -37,48 -63,63 -26,14 -54,22 -86,22 -59,0 -106,-19 -142,-56 -36,-37 -54,-86 -54,-148 0,-62 17,-111 52,-148 35,-37 82,-55 140,-55 34,0 64,7 89,21 25,14 46,35 61,63l0 -71 70 0zm141 377l0 -377 63 0 0 79c19,-33 39,-56 60,-70 21,-14 47,-21 78,-21 8,0 17,1 24,2 8,1 15,3 23,5l-23 58c-8,-3 -16,-4 -23,-6 -7,-1 -14,-2 -21,-2 -37,0 -65,12 -83,37 -19,25 -28,62 -28,111l0 184 -70 0zm635 -187c0,-44 -12,-78 -37,-103 -24,-25 -58,-38 -101,-38 -41,0 -74,13 -98,40 -24,26 -36,63 -36,109 0,41 12,74 35,97 23,23 56,35 97,35 42,0 76,-13 101,-38 26,-26 38,-59 38,-102zm68 371l-70 0 0 -252c-16,28 -36,49 -61,63 -25,14 -55,21 -89,21 -59,0 -106,-18 -141,-55 -35,-37 -53,-86 -53,-149 0,-61 18,-110 54,-147 36,-37 83,-56 142,-56 32,0 61,7 87,22 26,14 46,35 62,63l0 -71 68 0 0 561z"/>
   <polyline class="fil1 str1" points="3340,1708 1659,2672 1659,6154 4676,7895 7692,6154 7692,5533 "/>
   <polyline class="fil1 str1" points="3340,2098 2010,2868 2010,5951 4676,7497 7348,5951 7348,5533 "/>
   <line class="fil1 str1" x1="7664" y1="5532" x2="7350" y2= "5532" />
   <polygon class="fil2 str2" points="4676,1329 7348,2868 7348,4831 5371,4831 5371,3644 5026,3644 5026,5182 7692,5182 7692,2672 4676,924 3994,1322 3994,1727 "/>
   <polygon class="fil2 str2" points="3690,4831 3690,1498 3340,1701 3340,2098 3340,5182 4676,5182 4676,4831 "/>
  </g>
 </g>
</svg>
