<?xml version="1.0" standalone="no"?><svg version="1.0" xmlns="http://www.w3.org/2000/svg" width="1080.000000pt" height="1080.000000pt" viewBox="0 0 1080.000000 1080.000000" preserveAspectRatio="xMidYMid meet"><g transform="translate(0.000000,1080.000000) scale(0.100000,-0.100000)" fill="#000000" stroke="none">

<path d="M0 5400 l0 -5400 5400 0 5400 0 0 5400 0 5400 -5400 0 -5400 0 0
-5400z m6575 2015 l1155 -670 0 -977 0 -978 -1037 2 -1038 3 -3 603 -2 602
150 0 150 0 0 -455 0 -455 745 0 745 0 0 743 0 743 -1020 588 -1020 587 -266
-156 c-146 -85 -267 -155 -270 -155 -2 0 -3 77 -2 171 l3 171 260 154 c143 84
268 152 277 151 9 -1 537 -303 1173 -672z m-1915 -1040 l0 -1285 375 0 375 0
0 -150 0 -150 -525 0 -525 0 -2 1183 -3 1183 -495 -287 -495 -287 0 -1182 0
-1183 1015 -588 c558 -324 1021 -587 1029 -584 7 3 467 267 1022 588 l1008
582 3 160 3 160 143 3 142 3 0 -243 0 -243 -1165 -672 -1165 -672 -1165 672
-1165 672 3 1344 2 1343 635 371 c349 203 703 409 785 458 83 48 153 88 158
88 4 1 7 -577 7 -1284z m-590 -1930 l0 -255 -35 0 c-23 0 -35 5 -35 14 0 11
-8 10 -37 -5 -177 -90 -312 164 -151 284 38 28 119 27 158 -1 l30 -23 0 121 0
120 35 0 35 0 0 -255z m568 138 c1 -62 5 -113 8 -113 2 0 16 8 30 17 30 19
109 22 142 4 12 -6 34 -28 49 -48 23 -30 28 -46 28 -99 0 -48 -5 -69 -21 -91
-55 -74 -140 -94 -208 -48 -34 23 -36 23 -36 5 0 -16 -7 -20 -30 -20 l-30 0 0
256 0 255 33 -3 32 -3 3 -112z m402 -138 l0 -255 -35 0 -35 0 0 255 0 255 35
0 35 0 0 -255z m540 20 l0 -205 95 0 95 0 0 -35 0 -35 -130 0 -130 0 0 240 0
240 35 0 35 0 0 -205z m-1163 9 c52 -30 88 -98 80 -151 -16 -98 -145 -170
-240 -134 -43 17 -96 71 -108 111 -25 84 26 171 116 195 59 16 96 11 152 -21z
m905 26 c56 -16 94 -53 107 -104 6 -25 11 -50 11 -55 0 -7 -44 -11 -125 -11
-113 0 -125 -2 -125 -18 0 -54 77 -92 135 -68 18 8 39 23 47 35 15 21 15 21
39 2 l24 -19 -25 -27 c-69 -76 -214 -70 -266 10 -73 111 -4 251 131 264 6 0
27 -4 47 -9z m899 0 c9 0 28 -11 43 -25 l26 -24 0 24 c0 21 5 25 30 25 l30 0
0 -155 0 -155 -30 0 c-23 0 -30 4 -30 20 0 18 -2 18 -36 -5 -83 -56 -198 -10
-225 89 -15 55 -3 117 29 155 29 35 95 63 127 56 11 -3 27 -5 36 -5z m642 -1
c21 -6 47 -19 58 -30 19 -19 19 -19 19 6 0 21 5 25 30 25 l30 0 0 -225 0 -225
-35 0 -35 0 0 85 0 85 -32 -20 c-72 -44 -181 -8 -212 70 -20 51 -20 103 0 145
20 43 44 64 91 81 47 16 40 16 86 3z m-353 -20 l0 -20 26 20 c30 24 114 30
114 9 0 -27 -21 -43 -56 -44 -62 -2 -74 -27 -74 -150 l0 -104 -35 0 -35 0 0
155 0 155 30 0 c24 0 30 -4 30 -21z m-576 -231 c14 -23 -3 -52 -33 -56 -42 -6
-67 38 -39 66 17 17 58 11 72 -10z"/>

<path d="M3725 7100 l-630 -367 -3 -1334 -2 -1334 1155 -667 1155 -667 1155
667 1155 667 0 227 0 228 -125 0 -124 0 -3 -157 -3 -157 -1025 -593 c-564
-326 -1027 -593 -1030 -593 -3 0 -466 267 -1030 594 l-1025 595 0 1191 0 1192
499 288 c274 159 503 293 508 298 4 4 7 72 6 149 l-3 141 -630 -368z"/>

<path d="M3839 4421 c-20 -16 -24 -29 -24 -74 0 -65 20 -93 72 -103 39 -7 89
11 103 37 6 10 10 38 10 64 0 63 -31 95 -93 95 -29 0 -53 -7 -68 -19z"/>

<path d="M4667 4420 c-50 -40 -39 -148 18 -170 69 -26 127 4 140 74 8 42 -9
92 -36 106 -31 17 -94 12 -122 -10z"/>

<path d="M4246 4417 c-19 -16 -29 -37 -33 -64 -4 -34 -1 -45 23 -72 57 -64
148 -51 180 26 18 41 7 84 -27 114 -33 28 -108 26 -143 -4z"/>

<path d="M5215 4425 c-40 -39 -32 -45 60 -45 61 0 85 3 85 13 -1 54 -101 77
-145 32z"/>

<path d="M6122 4417 c-71 -75 -8 -192 93 -173 39 8 75 52 75 94 0 31 -26 79
-49 92 -36 19 -96 12 -119 -13z"/>

<path d="M6771 4416 c-14 -15 -25 -42 -28 -69 -7 -57 24 -96 83 -104 33 -4 45
-1 71 21 39 33 49 73 29 119 -17 42 -41 57 -94 57 -28 0 -45 -7 -61 -24z"/></g></svg>
